<?xml version="1.0" encoding="utf-8"?>
<svg xmlns="http://www.w3.org/2000/svg" xmlns:bx="https://boxy-svg.com" x="0px" y="0px" width="62.4px" height="62.4px" viewBox="0 0 62.4 62.4" style="enable-background:new 0 0 62.4 62.4;">
  <defs>
    <bx:export>
      <bx:file format="svg"/>
    </bx:export>
  </defs>
  <g transform="matrix(1, 0, 0, 1, -110.571999, -8.969998)">
    <path class="st0" d="M167.8,46.1c-4-2.4-7.4-4.2-10.9-6c1.7-0.9,3.2-1.8,5-2.9c0.3-0.2,0.6-0.5,0.8-0.8c1.6-3.1,3.2-6.7,4.3-11 c0.3-1,0-2.2-0.7-2.9c-4.4-4.6-9.2-8.9-15.5-13c-0.5-0.3-1-0.5-1.6-0.5c-10.7-0.2-23,0.6-35.2,2.4c-0.9,0.1-1.6,0.9-1.7,1.8 c-1,11.5-1.9,35.9-1.7,55.7c0,1.1,0.9,2,2,2c15,0.6,29.2,0.6,45.7,0c1,0,2-0.6,2.6-1.5c3.4-5.8,6.5-13.1,8.4-19.8 C169.6,48.3,169,46.8,167.8,46.1z M142.6,30.9c-3.3,0.7-8.2,1.6-11.6,2c0.1-2.3,0.2-4.8,0.5-7.6c3.4,0.3,8.3,1.1,11.6,1.7 C142.9,28.5,142.8,29.9,142.6,30.9z M138.7,55.4c-2.5,0.3-5.8,0.4-7.7,0.3c-0.1-2.1-0.3-5-0.3-7.6c2.5-0.5,6.1-1.1,9.3-1.6 C139.6,49.7,139.1,52.5,138.7,55.4z" style="fill: rgb(226, 35, 26);"/>
    <g>
      <path class="st1" d="M149.6,40.1c3.9-1.8,6.8-3.3,9.9-5.6c1.4-2.7,2.9-6.4,3.8-9.7c-4.3-4.2-9.6-7.9-14.8-11.2 c-11.4-0.3-21.3,0.7-32.1,2.3c-1,18.5-1.6,33.6-1.6,50.6c14.3,0.6,27.3,0.5,42.3,0c3.3-5.1,6.3-12.2,8-17.5 C160.7,46.1,154.9,42.8,149.6,40.1z M141.7,58.7c-4.5,0.4-9.8,0.4-13.8,0.4c-0.3-4.9-0.4-8.7-0.4-13.6c4.8-1,11-2.3,16.8-3.6 C143.7,47.5,142.8,53.3,141.7,58.7z M145.5,33c-5.9,1.5-12.7,3-17.9,3.8c0.1-5.3,0.5-10.2,0.8-15.1c6.4,0.7,12.6,1.5,18.3,2.7 C146.3,27.7,145.9,30.4,145.5,33z" style="fill: rgb(255, 255, 255);"/>
    </g>
  </g>
</svg>